<svg width="576" height="350" viewBox="0 0 576 350" fill="none" xmlns="http://www.w3.org/2000/svg">
<path d="M292.226 30.8236C293.648 32.0247 294.658 33.2949 295.642 34.857C295.878 35.2218 296.134 35.5699 296.391 35.9199C297.224 37.1065 297.69 38.4515 298.197 39.7999C298.393 40.2951 298.608 40.7749 298.834 41.2568C299.391 42.4465 299.881 43.6609 300.373 44.8783C300.569 45.3613 300.766 45.8442 300.963 46.3269C301.044 46.5271 301.044 46.5271 301.127 46.7312C301.761 48.2853 302.403 49.8363 303.044 51.3875C303.098 51.5189 303.153 51.6504 303.209 51.7858C303.847 53.332 304.489 54.8769 305.141 56.4174C305.422 57.0837 305.689 57.7529 305.943 58.4304C306.249 59.2442 306.605 60.0263 306.973 60.8135C307.651 62.2996 308.239 63.8244 308.822 65.3493C309.185 66.2969 309.584 67.2161 310.018 68.134C310.362 68.8963 310.664 69.6737 310.97 70.452C311.405 71.5545 311.865 72.6455 312.33 73.736C312.874 75.0151 313.395 76.2958 313.859 77.6064C314.006 77.9843 314.159 78.3279 314.342 78.6869C314.738 79.4643 315.067 80.2678 315.399 81.0743C315.499 81.3154 315.499 81.3154 315.601 81.5614C316.046 82.6401 316.472 83.7249 316.888 84.8152C317.199 85.6258 317.554 86.4091 317.925 87.1945C318.212 87.8313 318.47 88.4773 318.726 89.1273C319.188 90.3005 319.668 91.4645 320.161 92.625C320.847 94.2407 321.519 95.8615 322.185 97.4854C322.254 97.6515 322.254 97.6515 322.323 97.821C322.536 98.3406 322.749 98.8605 322.961 99.3807C323.098 99.7156 323.236 100.05 323.375 100.384C324.134 102.219 324.257 104.568 323.639 106.482C322.813 108.411 321.61 109.666 319.838 110.752C319.672 110.855 319.507 110.959 319.336 111.067C318.356 111.547 317.23 111.582 316.16 111.695C315.94 111.72 315.721 111.745 315.501 111.771C313.209 112.032 310.925 112.159 308.621 112.228C308.326 112.237 308.032 112.246 307.738 112.256C306.954 112.28 306.169 112.304 305.385 112.328C304.565 112.353 303.746 112.379 302.927 112.404C300.166 112.49 297.405 112.575 294.643 112.658C293.91 112.681 293.177 112.703 292.444 112.725C292.047 112.737 291.65 112.749 291.253 112.761C288.147 112.856 285.042 112.966 281.938 113.088C280.407 113.148 278.878 113.2 277.346 113.223C270.823 113.218 270.823 113.218 265.246 116.241C265.15 116.335 265.055 116.428 264.956 116.525C263.413 118.161 262.865 120.478 262.181 122.569C261.953 123.247 261.712 123.92 261.473 124.594C261.282 125.138 261.091 125.681 260.912 126.229C260.659 127.002 260.385 127.768 260.113 128.535C259.923 129.072 259.737 129.609 259.558 130.15C259.328 130.843 259.094 131.534 258.859 132.226C258.816 132.35 258.774 132.475 258.73 132.604C258.593 133.008 258.455 133.411 258.318 133.815C258.27 133.954 258.223 134.093 258.174 134.236C257.845 135.201 257.516 136.166 257.187 137.131C257.148 137.243 257.11 137.356 257.071 137.471C256.356 139.564 255.633 141.654 254.887 143.736C254.365 145.191 253.863 146.652 253.38 148.121C252.792 149.903 252.175 151.674 251.56 153.447C251.325 154.124 251.091 154.8 250.857 155.477C250.8 155.64 250.744 155.804 250.685 155.972C250.271 157.172 249.868 158.376 249.476 159.583C249.241 160.301 248.968 160.987 248.671 161.681C248.557 162.007 248.451 162.335 248.345 162.663C248.196 163.108 248.034 163.547 247.871 163.988C246.937 166.592 246.065 169.504 247.215 172.189C248.625 175.013 251.296 176.694 254.207 177.675C260.105 179.561 266.321 180.368 272.476 180.864C272.738 180.885 273 180.907 273.262 180.93C274.594 181.041 275.924 181.095 277.259 181.131C277.373 181.135 277.487 181.138 277.604 181.141C280.092 181.21 282.579 181.223 285.067 181.219C285.66 181.218 286.253 181.219 286.846 181.22C290.503 181.224 294.152 181.201 297.792 180.812C298.425 180.748 299.054 180.718 299.69 180.697C301.162 180.648 302.549 180.436 303.99 180.137C304.755 179.98 305.521 179.867 306.294 179.76C310.469 179.163 315.682 178.177 318.562 174.813C320.215 172.557 320.561 169.732 320.294 167.018C319.848 164.872 318.605 162.782 316.796 161.529C315.633 160.945 314.603 160.591 313.303 160.594C313.179 160.594 313.055 160.594 312.928 160.593C312.516 160.593 312.105 160.593 311.693 160.594C311.404 160.594 311.115 160.593 310.826 160.593C310.216 160.593 309.607 160.593 308.998 160.594C308.23 160.595 307.462 160.594 306.694 160.593C303.718 160.591 300.749 160.606 297.776 160.732C296.558 160.782 295.341 160.789 294.123 160.786C293.753 160.785 293.384 160.786 293.015 160.787C291.812 160.788 290.615 160.763 289.414 160.692C288.144 160.618 286.875 160.598 285.603 160.589C285.267 160.587 284.931 160.584 284.595 160.582C283.671 160.574 282.747 160.567 281.823 160.564C281.249 160.563 280.676 160.558 280.103 160.552C279.888 160.55 279.673 160.549 279.458 160.549C277.948 160.551 276.71 160.329 275.282 159.851C275.048 159.781 274.814 159.711 274.579 159.642C272.799 159.022 270.589 157.976 269.658 156.248C269.379 155.594 269.144 154.926 268.916 154.252C268.784 153.868 268.644 153.502 268.477 153.133C267.364 150.509 268.465 147.426 269.377 144.921C269.701 144.027 270.008 143.127 270.316 142.227C271.365 139.163 271.365 139.163 271.905 137.654C272.017 137.336 272.125 137.016 272.226 136.694C272.86 134.726 274.073 132.875 275.434 131.337C275.544 131.198 275.544 131.198 275.655 131.056C277.429 128.992 280.653 128.193 283.218 127.896C283.541 127.858 283.863 127.82 284.185 127.782C284.397 127.757 284.397 127.757 284.613 127.732C284.876 127.696 285.139 127.652 285.4 127.599C285.778 127.524 286.145 127.484 286.529 127.454C286.673 127.442 286.818 127.43 286.966 127.418C287.262 127.394 287.557 127.371 287.853 127.348C288.68 127.279 289.497 127.187 290.319 127.067C292.188 126.814 294.082 126.819 295.966 126.771C296.841 126.748 297.716 126.722 298.591 126.696C298.811 126.69 299.031 126.684 299.251 126.677C301.055 126.625 302.859 126.553 304.662 126.468C307.077 126.353 309.492 126.265 311.91 126.211C312.227 126.204 312.543 126.196 312.86 126.189C315.619 126.122 318.374 126.12 321.102 126.591C321.259 126.615 321.415 126.64 321.577 126.665C322.471 126.813 323.254 127.039 324.096 127.372C324.448 127.44 324.448 127.44 324.761 127.449C326.135 127.577 327.234 128.088 328.426 128.749C328.945 129.036 329.448 129.288 330.007 129.488C332.676 130.509 334.704 132.271 336.377 134.551C336.658 134.919 336.929 135.22 337.268 135.53C338.648 136.865 339.332 138.743 340.032 140.49C340.242 141.01 340.456 141.53 340.67 142.048C340.71 142.145 340.75 142.241 340.791 142.341C340.873 142.537 340.954 142.734 341.035 142.93C341.227 143.393 341.418 143.857 341.609 144.321C342.004 145.28 342.401 146.238 342.8 147.195C343.972 150.013 345.143 152.831 346.306 155.652C346.757 156.748 347.211 157.842 347.666 158.937C347.83 159.332 347.995 159.728 348.159 160.123C348.249 160.339 348.338 160.555 348.428 160.771C348.474 160.882 348.52 160.993 348.568 161.108C348.715 161.461 348.862 161.815 349.009 162.168C349.482 163.307 349.955 164.446 350.428 165.585C350.636 166.086 350.844 166.586 351.052 167.086C351.151 167.325 351.25 167.564 351.349 167.802C351.487 168.136 351.626 168.47 351.765 168.803C351.825 168.949 351.825 168.949 351.887 169.098C352.071 169.542 352.258 169.986 352.448 170.429C352.73 171.09 353.004 171.753 353.278 172.417C353.362 172.619 353.362 172.619 353.447 172.825C353.683 173.397 353.919 173.97 354.155 174.542C354.329 174.961 354.502 175.381 354.675 175.8C354.728 175.928 354.781 176.056 354.835 176.188C355.127 176.895 355.425 177.599 355.725 178.302C355.882 178.681 356.038 179.059 356.193 179.439C356.282 179.656 356.371 179.874 356.461 180.092C356.507 180.205 356.553 180.317 356.6 180.433C357.284 182.101 357.968 183.769 358.67 185.43C359.045 186.321 359.414 187.214 359.779 188.108C359.819 188.207 359.859 188.305 359.901 188.407C359.935 188.491 359.97 188.576 360.005 188.663C360.116 188.929 360.229 189.195 360.343 189.46C360.62 190.107 360.887 190.757 361.153 191.408C361.264 191.676 361.374 191.943 361.484 192.211C361.654 192.625 361.824 193.038 361.994 193.453C362.659 195.074 363.344 196.683 364.067 198.28C364.532 199.309 364.97 200.346 365.391 201.394C365.46 201.566 365.53 201.737 365.601 201.915C366.051 203.033 366.491 204.156 366.921 205.282C366.972 205.414 367.022 205.546 367.074 205.681C367.142 205.863 367.142 205.863 367.212 206.049C367.252 206.154 367.291 206.258 367.332 206.366C367.974 208.234 367.617 210.513 366.778 212.268C366.152 213.426 365.365 214.339 364.431 215.248C364.203 215.47 363.979 215.695 363.755 215.921C362.819 216.853 361.831 217.656 360.744 218.405C360.55 218.545 360.356 218.685 360.163 218.826C358.152 220.273 358.152 220.273 357.246 220.845C357.023 220.988 357.023 220.988 356.796 221.134C355.075 222.185 353.219 222.8 351.291 223.362C350.659 223.55 350.071 223.788 349.472 224.066C347.838 224.805 346.156 225.418 344.473 226.03C344.364 226.069 344.255 226.109 344.143 226.15C342.747 226.655 341.326 227.032 339.888 227.394C339.745 227.43 339.601 227.466 339.453 227.504C339.325 227.536 339.197 227.568 339.065 227.6C338.675 227.712 338.31 227.86 337.934 228.012C337.724 228.072 337.512 228.127 337.3 228.176C337.178 228.205 337.057 228.234 336.932 228.263C336.736 228.309 336.736 228.309 336.537 228.355C336.399 228.387 336.261 228.42 336.119 228.453C334.811 228.76 333.501 229.062 332.191 229.362C331.422 229.539 330.656 229.722 329.893 229.922C328.861 230.183 327.817 230.351 326.766 230.518C325.407 230.739 324.05 230.968 322.699 231.233C320.705 231.622 318.724 231.975 316.694 232.091C315.986 232.144 315.29 232.255 314.589 232.362C313.884 232.458 313.179 232.506 312.47 232.549C312.084 232.563 312.084 232.563 311.778 232.739C311.57 232.768 311.361 232.79 311.151 232.807C311.02 232.819 310.89 232.83 310.755 232.841C310.613 232.853 310.47 232.865 310.323 232.877C310.175 232.889 310.026 232.902 309.874 232.914C309.387 232.955 308.9 232.995 308.414 233.034C308.247 233.048 308.081 233.062 307.909 233.076C305.145 233.302 302.382 233.507 299.613 233.654C299.494 233.66 299.375 233.666 299.253 233.673C294.539 233.922 289.836 234.008 285.116 233.999C284.216 233.997 283.317 233.998 282.417 234C276.351 234.01 270.3 233.838 264.25 233.387C263.687 233.346 263.125 233.309 262.562 233.273C262.18 233.247 261.798 233.222 261.416 233.196C261.244 233.186 261.073 233.175 260.896 233.164C259.97 233.1 259.08 232.983 258.17 232.806C257.661 232.715 257.16 232.69 256.645 232.672C254.13 232.557 251.614 232.209 249.127 231.824C249.127 231.723 249.127 231.623 249.127 231.519C249.013 231.524 248.9 231.529 248.783 231.534C247.361 231.567 246.03 231.364 244.641 231.1C244.412 231.057 244.182 231.015 243.953 230.973C243.395 230.871 242.838 230.766 242.28 230.661C241.853 230.58 241.425 230.502 240.997 230.424C239.767 230.196 238.547 229.953 237.337 229.635C237 229.547 236.664 229.468 236.325 229.394C234.195 228.927 232.08 228.398 229.967 227.859C229.835 227.826 229.703 227.793 229.568 227.759C229.178 227.66 228.788 227.56 228.399 227.459C228.281 227.43 228.164 227.4 228.044 227.37C227.519 227.233 227.047 227.083 226.548 226.865C226.125 226.687 225.787 226.58 225.345 226.49C224.634 226.343 223.986 226.103 223.314 225.829C223.072 225.733 222.831 225.636 222.589 225.54C222.472 225.493 222.356 225.446 222.235 225.398C221.799 225.224 221.359 225.06 220.919 224.896C219.769 224.454 218.65 223.945 217.529 223.436C217.295 223.331 217.06 223.227 216.825 223.124C216.704 223.071 216.584 223.018 216.46 222.964C216.351 222.917 216.242 222.869 216.13 222.821C215.83 222.678 215.56 222.516 215.283 222.332C214.797 222.013 214.295 221.758 213.771 221.509C212.348 220.83 211.132 219.986 209.894 219.015C209.762 218.915 209.63 218.815 209.494 218.712C206.666 216.527 203.229 213.419 202.697 209.666C202.669 209.293 202.66 208.925 202.661 208.551C202.661 208.415 202.662 208.278 202.662 208.137C202.7 206.614 203.085 205.189 203.528 203.739C203.617 203.449 203.701 203.157 203.782 202.865C204.22 201.333 204.859 199.902 205.503 198.449C205.612 198.201 205.721 197.954 205.83 197.706C206.053 197.197 206.277 196.689 206.501 196.18C206.587 195.984 206.587 195.984 206.675 195.784C206.795 195.511 206.915 195.238 207.036 194.965C208.046 192.671 208.992 190.355 209.913 188.023C210.66 186.133 211.409 184.244 212.201 182.372C212.662 181.282 213.108 180.186 213.55 179.088C213.692 178.736 213.834 178.384 213.976 178.032C214.461 176.831 214.944 175.63 215.428 174.429C215.659 173.855 215.89 173.281 216.122 172.707C216.286 172.3 216.45 171.892 216.614 171.484C217.129 170.204 217.655 168.93 218.201 167.663C218.545 166.851 218.862 166.029 219.18 165.207C220.038 163.003 220.924 160.81 221.816 158.619C222.055 158.033 222.292 157.448 222.53 156.862C222.677 156.499 222.824 156.136 222.972 155.772C223.037 155.61 223.103 155.448 223.171 155.281C223.479 154.522 223.79 153.763 224.106 153.007C224.492 152.081 224.864 151.15 225.234 150.218C225.924 148.479 226.622 146.743 227.328 145.01C227.876 143.665 228.421 142.319 228.965 140.972C229.111 140.61 229.258 140.248 229.404 139.885C229.973 138.479 229.973 138.479 230.541 137.072C230.796 136.441 231.051 135.809 231.307 135.178C231.348 135.077 231.388 134.976 231.431 134.872C231.955 133.576 232.487 132.283 233.027 130.994C233.67 129.458 234.281 127.91 234.884 126.358C235.209 125.521 235.54 124.689 235.897 123.865C236.45 122.554 236.979 121.233 237.503 119.91C238.125 118.345 238.758 116.786 239.404 115.231C240.104 113.547 240.779 111.856 241.438 110.156C241.758 109.332 242.085 108.514 242.436 107.702C242.682 107.106 242.925 106.508 243.168 105.91C243.24 105.734 243.311 105.558 243.385 105.377C243.816 104.315 244.242 103.251 244.665 102.186C244.712 102.068 244.759 101.95 244.808 101.828C245.039 101.247 245.269 100.666 245.499 100.084C245.92 99.0217 246.354 97.9721 246.834 96.9344C247.073 96.4029 247.276 95.8607 247.473 95.3125C247.75 94.5517 248.047 93.8072 248.367 93.0633C248.516 92.6939 248.663 92.3235 248.81 91.9531C249.108 91.2034 249.413 90.4562 249.716 89.7087C249.823 89.4457 249.823 89.4457 249.932 89.1773C250.486 87.8163 251.043 86.4572 251.602 85.0985C252.459 83.0152 253.305 80.928 254.133 78.8329C254.405 78.1467 254.683 77.4633 254.968 76.7821C255.387 75.7777 255.788 74.7667 256.189 73.755C256.877 72.0219 257.579 70.2947 258.289 68.5706C258.898 67.0935 259.503 65.6157 260.092 64.1305C260.498 63.1047 260.914 62.0826 261.33 61.0607C261.891 59.6848 262.445 58.3065 262.994 56.9257C263.719 55.0994 264.46 53.2803 265.212 51.4651C265.689 50.3153 266.156 49.1628 266.615 48.0059C267.096 46.7927 267.589 45.5844 268.082 44.3758C268.541 43.2481 268.993 42.1182 269.442 40.9865C272.496 33.2858 272.496 33.2858 275.306 31.3078C275.589 31.108 275.868 30.9029 276.143 30.6919C280.935 27.0243 287.469 27.1393 292.226 30.8236Z" fill="black"/>
<path d="M316.04 22.0127C316.255 22.011 316.471 22.0079 316.686 22.0034C318.344 21.9688 319.762 22.2022 321.356 22.6681C321.557 22.723 321.759 22.7774 321.96 22.8313C322.969 23.1027 323.919 23.4217 324.855 23.8887C324.855 23.9894 324.855 24.0901 324.855 24.1938C324.943 24.218 325.032 24.2422 325.123 24.2671C326.305 24.6045 327.514 24.9957 328.569 25.6385C328.947 25.8632 329.329 26.029 329.734 26.1977C330.293 26.4501 330.817 26.768 331.348 27.0737C332.403 27.671 333.456 28.1863 334.59 28.6185C334.882 28.7357 335.173 28.8533 335.465 28.9713C335.68 29.0573 335.895 29.1432 336.111 29.2288C336.111 29.3295 336.111 29.4302 336.111 29.5339C336.221 29.5518 336.332 29.5696 336.445 29.5879C336.882 29.689 337.213 29.8347 337.61 30.0429C337.75 30.1164 337.891 30.1899 338.036 30.2657C338.185 30.3452 338.334 30.4247 338.488 30.5066C338.643 30.5885 338.798 30.6703 338.958 30.7547C340.068 31.3447 341.156 31.9665 342.239 32.6056C343.162 33.1474 344.104 33.6327 345.065 34.104C345.798 34.4649 346.521 34.8452 347.244 35.2269C347.366 35.2911 347.488 35.3553 347.614 35.4215C348.08 35.6681 348.539 35.914 348.987 36.1924C349.418 36.4423 349.856 36.603 350.324 36.7717C351.043 37.0418 351.617 37.3236 352.235 37.773C352.487 37.8787 352.74 37.9812 352.995 38.0781C353.146 38.1788 353.297 38.2795 353.452 38.3833C353.58 38.4222 353.709 38.4611 353.841 38.5013C354.577 38.7643 355.221 39.1548 355.895 39.5466C356.206 39.7253 356.517 39.9037 356.829 40.0818C356.994 40.1769 357.16 40.2719 357.331 40.3699C358.283 40.9122 359.243 41.4397 360.202 41.9688C360.389 42.072 360.576 42.1752 360.763 42.2785C361.113 42.4716 361.463 42.6648 361.813 42.8579C362.193 43.0682 362.573 43.2795 362.953 43.4915C363.433 43.7596 363.914 44.0253 364.396 44.29C364.772 44.4962 365.147 44.7028 365.523 44.9094C365.714 45.0145 365.905 45.1193 366.096 45.224C367.279 45.872 368.438 46.542 369.574 47.2699C370.068 47.5586 370.57 47.774 371.097 47.9955C371.359 48.1325 371.618 48.274 371.875 48.4204C372.016 48.5006 372.158 48.5808 372.303 48.6635C372.451 48.7483 372.599 48.8331 372.751 48.9204C372.904 49.0085 373.058 49.0965 373.216 49.1873C373.528 49.3662 373.839 49.5454 374.151 49.7247C374.554 49.9554 374.96 50.1814 375.367 50.4057C377.523 51.6067 377.523 51.6067 378.094 52.7253C378.172 52.8722 378.251 53.0191 378.331 53.1705C378.567 53.6283 378.792 54.0881 379.006 54.5562C379.131 54.7783 379.131 54.7783 379.258 55.005C379.6 55.8183 379.53 56.7174 379.522 57.5849C379.52 57.892 379.522 58.1988 379.525 58.5058C379.522 59.6188 379.455 60.5531 379.006 61.5746C378.967 61.674 378.927 61.7734 378.887 61.8758C378.185 63.5911 377.189 64.7828 375.812 65.9993C375.699 66.1003 375.585 66.2014 375.468 66.3056C375.277 66.4724 375.086 66.6379 374.893 66.8021C374.525 67.1302 374.181 67.4786 373.835 67.8302C373.314 68.3578 372.784 68.8564 372.222 69.3392C371.708 69.7928 371.208 70.2607 370.707 70.7291C370.612 70.8178 370.517 70.9066 370.419 70.998C369.853 71.5287 369.299 72.0694 368.756 72.6234C368.505 72.8708 368.245 73.1025 367.978 73.3324C367.241 73.969 366.536 74.64 365.829 75.3102C365.319 75.7911 364.803 76.2462 364.252 76.6795C363.995 76.9302 363.742 77.1852 363.491 77.4424C362.547 78.4079 361.582 79.3263 360.539 80.1851C358.541 81.886 356.985 84.3619 356.762 87.0247C356.608 90.4354 357.196 93.1512 359.454 95.8067C361.131 97.5533 363.578 98.9093 366.031 99.0215C366.335 99.0251 366.639 99.0252 366.942 99.0221C367.102 99.021 367.262 99.0198 367.427 99.0186C370.469 98.9545 372.986 97.7393 375.091 95.56C375.56 95.0875 376.07 94.661 376.573 94.2256C377.303 93.5834 378.024 92.9402 378.702 92.2421C379.383 91.5449 380.073 90.8736 380.81 90.2366C381.706 89.4589 382.59 88.669 383.418 87.8174C383.988 87.2328 384.558 86.654 385.176 86.12C385.799 85.5821 386.401 85.0229 387.002 84.4608C387.097 84.3721 387.192 84.2833 387.29 84.1919C387.856 83.6612 388.409 83.1205 388.953 82.5665C389.204 82.3191 389.464 82.0873 389.73 81.8575C390.356 81.316 390.961 80.7538 391.565 80.1887C391.66 80.1 391.755 80.0113 391.853 79.9199C392.328 79.4745 392.794 79.0235 393.25 78.5581C394.247 77.5519 395.455 76.8054 396.649 76.0561C397.188 75.7129 397.718 75.3577 398.249 75.0012C398.54 74.8064 398.831 74.6119 399.122 74.4174C399.361 74.2574 399.599 74.0965 399.837 73.9355C401.596 72.7731 403.459 72.0586 405.474 71.4919C405.601 71.454 405.728 71.416 405.859 71.3769C407.837 70.8767 410.085 71.0725 412.015 71.6445C412.186 71.687 412.357 71.7295 412.533 71.7733C414.332 72.2367 415.899 73.0536 417.463 74.0458C417.789 74.2464 417.789 74.2464 418.143 74.373C418.711 74.6076 419.219 74.9227 419.744 75.2396C421.667 76.3864 423.623 77.4701 425.588 78.5422C428.083 79.9051 430.555 81.309 433.025 82.7157C433.833 83.1748 434.645 83.6251 435.46 84.0697C436.254 84.5041 437.045 84.9451 437.836 85.3858C437.967 85.459 437.967 85.459 438.101 85.5337C439.077 86.077 440.051 86.6229 441.022 87.1761C441.18 87.2666 441.339 87.3571 441.502 87.4503C441.802 87.6212 442.101 87.7925 442.399 87.9644C442.534 88.0412 442.668 88.118 442.807 88.1971C442.981 88.2975 442.981 88.2975 443.159 88.3999C443.519 88.5893 443.883 88.7406 444.262 88.8855C444.262 88.9861 444.262 89.0868 444.262 89.1906C444.714 89.3416 445.166 89.4927 445.631 89.6483C445.631 89.749 445.631 89.8497 445.631 89.9535C445.765 89.9947 445.898 90.0359 446.036 90.0783C446.517 90.2492 446.926 90.4494 447.369 90.702C447.523 90.7896 447.678 90.8772 447.837 90.9674C448 91.0608 448.163 91.1542 448.331 91.2504C448.674 91.4449 449.017 91.6394 449.36 91.8338C449.613 91.9773 449.613 91.9773 449.87 92.1237C450.509 92.4869 451.15 92.847 451.792 93.2052C451.9 93.2656 452.008 93.3261 452.12 93.3883C452.892 93.818 453.672 94.2334 454.454 94.6451C455.244 95.0613 456.017 95.4928 456.778 95.9611C457.312 96.2812 457.855 96.5839 458.399 96.8861C458.512 96.9486 458.624 97.0112 458.74 97.0756C459.309 97.391 459.877 97.7057 460.446 98.0203C460.91 98.277 461.374 98.5342 461.838 98.7916C462.023 98.8939 462.207 98.996 462.392 99.0978C462.653 99.242 462.914 99.3869 463.175 99.5317C463.327 99.6155 463.478 99.6992 463.634 99.7856C463.993 99.9976 464.314 100.229 464.645 100.481C464.897 100.588 465.15 100.689 465.406 100.786C465.676 100.917 465.946 101.051 466.214 101.187C466.348 101.255 466.482 101.323 466.621 101.393C466.722 101.445 466.823 101.496 466.927 101.549C466.927 101.65 466.927 101.751 466.927 101.854C467.038 101.897 467.148 101.939 467.263 101.983C467.812 102.211 468.319 102.495 468.838 102.785C469.234 103.005 469.631 103.219 470.03 103.431C471.439 104.187 472.767 104.909 473.761 106.203C474.082 106.591 474.402 106.851 474.808 107.147C476.304 108.322 477.121 109.947 477.575 111.772C478.292 118.279 474.41 125.805 471.034 131.149C470.951 131.28 470.868 131.412 470.782 131.548C470.218 132.439 469.642 133.322 469.056 134.2C468.984 134.309 468.911 134.418 468.837 134.53C467.944 135.864 467.008 137.16 466.04 138.44C465.698 138.894 465.361 139.351 465.028 139.811C464.172 140.991 463.313 142.153 462.36 143.256C461.853 143.843 461.373 144.447 460.899 145.062C460.31 145.824 459.694 146.549 459.042 147.259C458.702 147.638 458.384 148.03 458.066 148.428C457.358 149.307 456.593 150.127 455.822 150.951C455.482 151.315 455.149 151.683 454.824 152.061C454.23 152.75 453.612 153.418 452.994 154.085C452.676 154.428 452.36 154.772 452.045 155.118C450.457 156.852 448.795 158.513 447.133 160.177C446.719 160.592 446.305 161.008 445.891 161.424C445.567 161.749 445.243 162.074 444.919 162.398C444.766 162.551 444.614 162.705 444.461 162.858C443.686 163.637 442.906 164.401 442.07 165.116C441.771 165.375 441.494 165.651 441.22 165.936C440.843 166.328 440.449 166.691 440.039 167.048C439.412 167.595 438.809 168.164 438.206 168.739C437.392 169.512 436.566 170.244 435.689 170.944C435.236 171.319 434.805 171.714 434.375 172.115C433.682 172.761 432.967 173.371 432.229 173.967C431.736 174.371 431.254 174.787 430.772 175.205C429.134 176.62 427.453 177.98 425.733 179.294C425.318 179.612 424.909 179.936 424.5 180.262C422.368 181.959 420.157 183.551 417.926 185.114C417.677 185.288 417.429 185.464 417.181 185.64C414.531 187.508 411.8 189.266 409.008 190.909C408.65 191.121 408.295 191.337 407.94 191.554C404.924 193.371 401.751 195.002 398.477 196.298C398.311 196.364 398.145 196.429 397.975 196.497C396.619 197.027 395.271 197.492 393.864 197.862C393.418 197.987 392.983 198.134 392.544 198.281C389.843 199.166 386.803 199.384 384.214 198.067C382.493 197.059 381.068 195.661 380.024 193.967C379.804 193.611 379.573 193.295 379.311 192.97C378.238 191.555 377.538 189.883 376.911 188.234C376.749 187.778 376.749 187.778 376.564 187.477C376.245 186.734 376.37 185.832 376.373 185.036C376.373 184.883 376.373 184.883 376.374 184.726C376.381 182.811 376.544 180.944 376.877 179.057C376.901 178.922 376.924 178.787 376.948 178.649C377.358 176.38 378.064 174.751 379.311 172.801C379.414 172.639 379.517 172.477 379.623 172.31C380.468 171.006 381.304 169.943 382.549 169.013C383.087 168.581 383.583 168.109 384.083 167.633C384.875 166.882 385.679 166.172 386.529 165.489C387.188 164.951 387.811 164.375 388.437 163.8C388.722 163.539 389.008 163.278 389.293 163.018C389.433 162.889 389.574 162.761 389.718 162.629C390.043 162.335 390.37 162.046 390.7 161.759C391.339 161.203 391.957 160.625 392.576 160.048C393.032 159.625 393.49 159.209 393.961 158.803C394.368 158.451 394.746 158.083 395.121 157.697C395.619 157.19 396.144 156.759 396.71 156.33C397.493 155.716 398.24 155.056 398.99 154.402C399.206 154.214 399.423 154.028 399.641 153.841C399.755 153.741 399.87 153.642 399.988 153.539C400.084 153.456 400.179 153.374 400.278 153.289C400.557 153.015 400.806 152.738 401.059 152.441C401.77 151.616 402.54 150.852 403.309 150.083C403.562 149.83 403.815 149.576 404.067 149.322C404.833 148.553 405.604 147.8 406.428 147.093C406.849 146.725 407.24 146.329 407.632 145.929C407.707 145.853 407.782 145.777 407.86 145.699C408.008 145.549 408.156 145.398 408.304 145.248C408.506 145.043 408.71 144.84 408.914 144.637C409.246 144.301 409.563 143.957 409.876 143.603C410.299 143.126 410.726 142.657 411.165 142.195C412.197 141.108 413.152 140.025 413.992 138.777C414.791 137.604 415.627 136.546 416.609 135.521C420.476 131.465 423.654 126.267 423.864 120.589C423.874 120.308 423.885 120.028 423.898 119.748C424.028 116.695 423.391 114.1 421.348 111.751C419.624 109.94 417.118 108.447 414.555 108.373C411.234 108.299 408.659 108.89 406.167 111.246C406.038 111.369 405.91 111.492 405.778 111.619C405.481 111.893 405.183 112.166 404.884 112.439C404.412 112.874 403.94 113.309 403.468 113.745C402.749 114.409 402.028 115.067 401.282 115.7C400.937 116.001 400.621 116.326 400.302 116.654C399.691 117.282 399.066 117.878 398.402 118.45C397.774 119.009 397.165 119.589 396.555 120.167C396.045 120.648 395.529 121.103 394.978 121.536C394.721 121.787 394.468 122.042 394.218 122.299C393.554 122.98 392.88 123.633 392.161 124.254C391.636 124.718 391.126 125.196 390.614 125.675C390.517 125.766 390.419 125.858 390.319 125.952C389.909 126.336 389.503 126.723 389.106 127.121C388.707 127.522 388.294 127.905 387.876 128.288C387.797 128.361 387.717 128.434 387.635 128.51C387.147 128.956 386.657 129.4 386.165 129.842C384.909 130.974 383.661 132.112 382.475 133.319C382.11 133.679 381.725 134.012 381.337 134.347C380.892 134.739 380.458 135.141 380.024 135.545C379.938 135.623 379.853 135.702 379.765 135.783C379.365 136.153 378.97 136.525 378.582 136.908C377.638 137.824 376.697 138.415 375.497 138.948C375.194 139.087 374.899 139.238 374.604 139.392C372.706 140.352 370.768 140.69 368.683 141.015C368.201 141.091 367.721 141.171 367.24 141.251C366.586 141.359 365.932 141.465 365.278 141.571C365.088 141.602 365.088 141.602 364.895 141.634C364.531 141.693 364.167 141.751 363.802 141.808C363.695 141.826 363.587 141.843 363.475 141.861C362.602 141.997 361.733 142.117 360.896 141.781C360.319 141.568 359.761 141.45 359.156 141.343C357.162 140.927 354.689 139.882 353.45 138.212C353.27 137.926 353.096 137.637 352.927 137.344C352.657 136.89 352.344 136.518 351.994 136.125C351.441 135.492 350.944 134.913 350.866 134.048C350.765 134.048 350.665 134.048 350.562 134.048C350.528 133.959 350.495 133.87 350.461 133.778C350.12 132.894 349.727 132.052 349.298 131.208C349.005 130.62 348.728 130.027 348.451 129.432C348.053 128.576 347.642 127.728 347.215 126.886C346.714 125.895 346.256 124.888 345.814 123.869C345.529 123.213 345.226 122.574 344.894 121.94C344.781 121.689 344.781 121.689 344.781 121.384C344.681 121.384 344.581 121.384 344.477 121.384C344.436 121.28 344.396 121.176 344.354 121.069C343.941 120.046 343.48 119.065 342.981 118.083C342.526 117.182 342.116 116.266 341.721 115.339C341.475 114.771 341.212 114.228 340.907 113.69C340.509 112.985 340.186 112.257 339.866 111.514C339.369 110.377 338.821 109.309 338.169 108.254C337.928 107.788 337.84 107.408 337.784 106.889C337.684 106.889 337.583 106.889 337.48 106.889C337.375 106.65 337.375 106.65 337.269 106.407C337.007 105.81 336.745 105.214 336.482 104.618C336.369 104.361 336.256 104.104 336.143 103.847C335.371 102.064 335.371 102.064 334.467 100.346C334.068 99.6354 333.732 98.8907 333.383 98.1544C333.303 97.9863 333.223 97.8182 333.14 97.645C332.913 97.1666 332.687 96.6879 332.46 96.209C332.375 96.0287 332.375 96.0287 332.288 95.8447C331.548 94.2805 331.548 94.2805 331.548 93.9204C331.447 93.9204 331.347 93.9204 331.243 93.9204C331.141 93.6841 331.141 93.6841 331.036 93.443C329.961 90.9834 328.811 88.5589 327.603 86.1622C327.071 85.1033 326.567 84.0313 326.063 82.9586C325.688 82.1651 325.295 81.3932 324.853 80.6354C324.652 80.2418 324.584 79.8641 324.551 79.4258C324.45 79.4258 324.35 79.4258 324.246 79.4258C324.188 79.278 324.188 79.278 324.128 79.1272C323.291 77.0611 322.312 75.0557 321.303 73.0694C320.444 71.3691 320.444 71.3691 320.444 70.8816C320.343 70.8816 320.243 70.8816 320.139 70.8816C320.07 70.705 320 70.5284 319.928 70.3464C319.834 70.1116 319.739 69.8768 319.645 69.642C319.599 69.5259 319.554 69.4099 319.507 69.2903C319.285 68.7414 319.068 68.2776 318.735 67.7837C318.466 67.3724 318.466 67.3724 318.466 66.7621C318.366 66.7621 318.265 66.7621 318.162 66.7621C318.096 66.616 318.03 66.4699 317.962 66.3193C317.715 65.7721 317.468 65.225 317.22 64.678C317.114 64.4422 317.007 64.2063 316.901 63.9704C316.747 63.6294 316.593 63.2886 316.439 62.9478C316.369 62.792 316.369 62.792 316.297 62.6331C315.765 61.4593 315.18 60.3289 314.537 59.2121C314.359 58.8283 314.359 58.8283 314.359 58.218C314.259 58.218 314.158 58.218 314.055 58.218C313.778 57.6242 313.503 57.0295 313.228 56.4347C313.149 56.2665 313.071 56.0982 312.99 55.9249C312.915 55.7621 312.84 55.5994 312.763 55.4317C312.659 55.2076 312.659 55.2076 312.553 54.9789C312.392 54.581 312.297 54.2161 312.23 53.7933C312.129 53.7933 312.029 53.7933 311.925 53.7933C311.894 53.7079 311.862 53.6226 311.83 53.5346C311.498 52.6697 311.116 51.8433 310.696 51.0183C310.427 50.4884 310.169 49.9553 309.922 49.4145C309.347 48.1578 308.76 46.996 307.966 45.8606C307.368 44.9446 306.917 43.948 306.449 42.9605C306.377 42.8082 306.377 42.8082 306.302 42.6529C305.804 41.608 305.326 40.5605 304.913 39.4781C304.782 39.1609 304.629 38.8731 304.462 38.574C303.744 37.1299 303.67 35.589 303.664 34.0063C303.663 33.789 303.663 33.789 303.661 33.5673C303.678 31.8631 304.01 30.4468 304.729 28.9046C304.791 28.7635 304.853 28.6225 304.917 28.4772C305.365 27.4995 305.91 26.6918 306.601 25.8721C306.728 25.7191 306.854 25.5661 306.985 25.4085C309.553 22.5035 312.336 22.0336 316.04 22.0127Z" fill="black"/>
<path d="M251.125 23.0003C251.281 23.0002 251.281 23.0002 251.441 23C254.615 23.005 257.34 23.487 259.672 25.7926C261.792 27.9472 263.404 30.7553 263.605 33.8184C263.619 34.0145 263.633 34.2106 263.648 34.4127C263.881 39.2551 261.075 44.6477 257.955 48.1867C257.571 48.6227 257.202 49.0687 256.841 49.5236C256.745 49.6434 256.649 49.7631 256.55 49.8865C256.387 50.0925 256.225 50.2995 256.065 50.5081C255.439 51.2906 254.679 51.7888 253.85 52.342C253.518 52.5749 253.188 52.8088 252.859 53.0442C252.726 53.1388 252.726 53.1388 252.59 53.2353C251.955 53.6882 251.321 54.1445 250.688 54.6013C249.636 55.3606 248.578 56.1087 247.507 56.8418C246.884 57.2718 246.271 57.7157 245.657 58.1591C244.225 59.1927 242.781 60.2082 241.335 61.2211C240.115 62.0753 238.9 62.9342 237.693 63.8053C236.274 64.8292 234.842 65.8351 233.409 66.8389C232.199 67.6866 230.993 68.539 229.795 69.4042C228.7 70.1952 227.594 70.9703 226.485 71.7408C225.518 72.4133 224.56 73.0978 223.606 73.7874C222.309 74.7229 221 75.6392 219.691 76.5562C218.481 77.4039 217.274 78.2563 216.077 79.1214C214.982 79.9125 213.876 80.6876 212.766 81.4581C211.799 82.1306 210.842 82.8151 209.887 83.5047C208.589 84.442 207.277 85.3604 205.965 86.2783C204.828 87.0739 203.694 87.8725 202.578 88.6964C201.611 89.4087 200.623 90.085 199.628 90.7575C198.176 91.7427 196.756 92.7729 195.339 93.8077C194.293 94.5702 193.232 95.3094 192.169 96.0482C191.364 96.6087 190.564 97.1756 189.772 97.7542C188.387 98.7616 186.984 99.7427 185.582 100.726C184.831 101.254 184.087 101.789 183.345 102.329C182.865 102.676 182.38 103.014 181.893 103.352C180.878 104.058 179.865 104.767 178.857 105.483C178.766 105.547 178.676 105.611 178.583 105.677C177.635 106.353 176.782 107.056 175.974 107.894C175.668 108.204 175.351 108.486 175.017 108.767C173.255 110.285 172 112.548 171.809 114.886C171.624 119.387 172.795 123.111 174.894 127.044C174.971 127.191 174.971 127.191 175.049 127.341C175.962 129.076 177.06 130.646 178.247 132.206C178.323 132.306 178.399 132.406 178.477 132.509C179.262 133.534 180.071 134.526 180.95 135.474C181.14 135.681 181.33 135.889 181.513 136.103C182.254 136.964 183.044 137.772 183.849 138.573C184.076 138.799 184.301 139.027 184.527 139.255C185.37 140.1 186.236 140.885 187.174 141.627C187.537 141.917 187.885 142.22 188.231 142.531C189.812 143.941 191.493 145.187 193.245 146.374C194.667 147.341 195.983 148.394 197.266 149.536C197.609 149.822 197.965 150.085 198.326 150.348C199.377 151.122 200.176 151.956 200.958 153.007C201.074 153.158 201.19 153.309 201.31 153.464C201.654 153.916 201.993 154.371 202.33 154.829C202.477 155.027 202.477 155.027 202.627 155.228C204.371 157.632 204.517 159.888 204.495 162.77C204.493 163.163 204.492 163.557 204.492 163.951C204.492 164.206 204.491 164.461 204.49 164.716C204.489 164.831 204.489 164.947 204.489 165.065C204.48 166.142 204.435 167.212 204.054 168.228C203.713 169.194 203.434 170.173 203.162 171.16C202.519 173.456 201.711 175.632 200.705 177.794C200.449 178.344 200.197 178.895 199.944 179.446C199.814 179.729 199.684 180.012 199.554 180.295C198.951 181.605 198.359 182.919 197.772 184.236C197.619 184.579 197.465 184.922 197.312 185.264C196.875 186.241 196.449 187.22 196.057 188.216C195.701 189.1 195.274 189.955 194.861 190.813C194.812 190.917 194.762 191.021 194.711 191.128C194.157 192.286 193.595 193.382 192.823 194.415C192.572 194.765 192.371 195.123 192.165 195.501C190.846 197.721 188.612 199.218 186.135 199.86C184.621 200.087 182.964 200.065 181.509 199.588C181.137 199.466 180.775 199.387 180.39 199.316C178.871 199.027 177.413 198.609 175.961 198.082C175.714 197.993 175.714 197.993 175.462 197.902C173.915 197.334 172.416 196.685 170.931 195.976C170.827 195.927 170.724 195.878 170.618 195.827C163.814 192.576 157.483 188.399 151.442 183.918C151.033 183.617 150.622 183.318 150.21 183.02C149.193 182.284 148.199 181.523 147.214 180.745C146.791 180.411 146.364 180.083 145.934 179.757C145.046 179.083 144.181 178.386 143.326 177.669C142.905 177.318 142.481 176.971 142.056 176.626C141.191 175.923 140.338 175.206 139.487 174.485C139.311 174.335 139.134 174.186 138.957 174.036C137.884 173.128 136.825 172.209 135.787 171.261C135.47 170.973 135.15 170.69 134.825 170.411C134.111 169.792 133.419 169.15 132.725 168.509C132.262 168.081 131.795 167.656 131.329 167.232C131.1 167.023 130.872 166.814 130.644 166.605C130.477 166.452 130.31 166.299 130.142 166.146C128.255 164.417 126.441 162.615 124.63 160.807C124.208 160.385 123.784 159.964 123.361 159.543C123.029 159.213 122.699 158.884 122.368 158.554C122.212 158.398 122.056 158.243 121.9 158.088C121.119 157.312 120.352 156.533 119.638 155.695C119.396 155.419 119.141 155.162 118.878 154.905C118.421 154.458 118.001 153.989 117.583 153.506C117.286 153.169 116.981 152.838 116.674 152.509C115.941 151.721 115.246 150.915 114.57 150.077C114.221 149.658 113.857 149.259 113.486 148.86C112.836 148.157 112.241 147.425 111.654 146.67C111.2 146.086 110.734 145.515 110.256 144.95C109.539 144.099 108.854 143.227 108.182 142.341C107.972 142.066 107.762 141.791 107.552 141.517C104.245 137.183 101.145 132.597 98.8338 127.651C98.7786 127.534 98.7234 127.416 98.6666 127.296C97.4873 124.76 96.4556 122.048 96.1491 119.252C96.0989 118.826 96.0989 118.826 95.9347 118.359C95.4902 116.642 95.5498 114.496 96.395 112.923C96.4893 112.734 96.4893 112.734 96.5855 112.54C97.1608 111.482 97.9614 110.706 98.8338 109.887C99.2066 109.52 99.5736 109.152 99.9277 108.767C100.926 107.704 102.023 107.009 103.283 106.309C103.482 106.196 103.682 106.082 103.881 105.968C104.267 105.748 104.653 105.529 105.04 105.311C105.606 104.991 106.165 104.661 106.722 104.326C106.89 104.224 107.059 104.123 107.232 104.019C107.323 103.965 107.413 103.91 107.507 103.854C108.232 103.418 108.958 102.985 109.684 102.551C110.604 102.002 111.524 101.452 112.442 100.902C113.72 100.136 115.001 99.3759 116.286 98.6224C117.698 97.7945 119.099 96.9499 120.498 96.101C121.684 95.3813 122.874 94.6697 124.074 93.9732C124.792 93.5551 125.492 93.1133 126.191 92.6636C126.575 92.4255 126.966 92.2105 127.366 91.9987C128.175 91.568 128.949 91.0899 129.721 90.5968C130.371 90.1848 131.034 89.7984 131.704 89.42C132.701 88.8564 133.683 88.27 134.661 87.6738C135.125 87.3912 135.59 87.1096 136.054 86.8281C136.19 86.7457 136.19 86.7457 136.329 86.6617C137.25 86.1037 138.18 85.559 139.111 85.0168C140.069 84.4587 141.019 83.8862 141.97 83.3158C142.224 83.1639 142.478 83.0121 142.732 82.8603C143.147 82.6122 143.563 82.3637 143.978 82.1148C144.956 81.5283 145.937 80.9461 146.921 80.3692C148.486 79.4514 150.041 78.5183 151.593 77.5772C152.862 76.8072 154.137 76.0466 155.42 75.2995C156.379 74.7414 157.328 74.1689 158.279 73.5985C158.533 73.4466 158.787 73.2948 159.041 73.143C159.448 72.9002 159.854 72.6571 160.26 72.4135C161.172 71.8668 162.086 71.323 163.002 70.7837C164.803 69.7235 166.6 68.657 168.387 67.5727C170.426 66.3353 172.48 65.1228 174.54 63.9204C174.653 63.8542 174.766 63.7881 174.883 63.7199C175.086 63.6012 175.29 63.4826 175.493 63.3644C176.123 62.9972 176.744 62.6189 177.365 62.2372C178.341 61.6373 179.326 61.0542 180.314 60.4745C181.782 59.612 183.242 58.7384 184.696 57.8554C186.709 56.6342 188.734 55.4348 190.769 54.2511C192.237 53.396 193.692 52.5196 195.145 51.6385C196.285 50.947 197.429 50.2614 198.582 49.5918C199.636 48.9776 200.678 48.3436 201.72 47.7111C203.383 46.703 205.053 45.71 206.735 44.7342C207.036 44.5596 207.336 44.3846 207.636 44.2094C207.739 44.1498 207.841 44.0901 207.946 44.0287C208.661 43.6094 209.371 43.1822 210.079 42.7516C210.172 42.6954 210.264 42.6391 210.36 42.5812C210.822 42.3004 211.283 42.0191 211.745 41.7368C214.719 39.9218 214.719 39.9218 215.963 39.4836C216.527 39.2766 216.929 39.0197 217.42 38.677C218.124 38.2272 218.809 37.7926 219.602 37.5193C220.168 37.3089 220.461 37.0769 220.926 36.7032C221.883 36.1098 222.871 35.5734 223.887 35.0858C225.088 34.509 226.226 33.8527 227.366 33.1636C229.728 31.7372 232.106 30.4301 234.607 29.2626C235.842 28.6809 236.992 28.0075 238.15 27.2896C239.266 26.6238 240.424 26.1167 241.625 25.6258C242.394 25.3096 243.138 24.9672 243.875 24.5851C245.27 23.8775 246.661 23.5742 248.191 23.2886C249.192 23.0816 250.078 23.0012 251.125 23.0003Z" fill="black"/>
<path d="M460.385 1.02442C460.558 1.02432 460.731 1.02422 460.91 1.02411C461.083 1.02401 461.256 1.02391 461.435 1.0238C461.695 1.02365 461.695 1.02365 461.96 1.02349C462.309 1.02328 462.659 1.02308 463.008 1.02288C465.612 1.02135 468.216 1.0186 470.82 1.0152C473.784 1.01133 476.748 1.00913 479.712 1.0091C481.248 1.00905 482.784 1.00826 484.321 1.00549C485.61 1.00316 486.9 1.00236 488.19 1.00361C488.843 1.0042 489.496 1.00406 490.149 1.00192C490.745 0.999987 491.341 1.00016 491.937 1.00201C492.152 1.00231 492.367 1.00184 492.581 1.00052C493.752 0.993737 494.75 1.04798 495.832 1.51417C495.959 1.56251 496.085 1.61084 496.215 1.66064C497.609 2.25473 498.9 2.84968 500.096 3.7935C500.215 3.87929 500.333 3.96509 500.455 4.05348C501.755 5.01225 502.628 6.09557 503.333 7.54489C503.398 7.67937 503.464 7.81385 503.531 7.95241C504.456 9.90301 504.988 12.4104 504.44 14.5667C504.236 15.3909 504.255 16.2811 504.208 17.1275C504.202 17.2466 504.195 17.3657 504.188 17.4884C504.082 19.4309 504.04 21.3724 504.019 23.3173C504.017 23.4349 504.016 23.5525 504.015 23.6736C504.001 24.8682 503.99 26.0626 503.984 27.2572C503.971 29.9092 503.862 32.5102 503.558 35.1465C503.438 36.1852 503.368 37.2249 503.304 38.2683C503.203 39.742 503.016 41.1781 502.755 42.6318C502.601 43.4913 502.479 44.3414 502.4 45.2107C502.221 47.0968 501.793 48.9528 501.42 50.808C501.29 51.4851 501.18 52.1644 501.076 52.8459C501.01 53.1789 501.01 53.1789 500.858 53.3308C500.842 53.5095 500.826 53.6881 500.81 53.8722C500.644 55.5052 500.106 57.1143 499.647 58.6843C499.501 59.2091 499.37 59.7348 499.243 60.2645C498.305 64.1626 497.025 68.0201 495.588 71.7637C495.383 72.3055 495.192 72.8507 495.004 73.3984C494.637 74.4277 494.188 75.4086 493.711 76.391C493.528 76.7728 493.349 77.1567 493.171 77.5409C491.821 80.4314 490.247 83.167 488.522 85.8492C488.455 85.9541 488.387 86.059 488.318 86.1671C487.899 86.819 487.477 87.4687 487.053 88.1168C486.85 88.4265 486.65 88.7374 486.45 89.0486C484.793 91.6099 482.871 93.3911 479.993 94.5106C479.884 94.5588 479.774 94.607 479.661 94.6566C478.624 95.0703 477.591 95.0158 476.49 94.9665C476.345 94.9618 476.2 94.9571 476.051 94.9522C475.114 94.8977 474.275 94.6855 473.386 94.3895C472.998 94.2608 472.616 94.1431 472.223 94.0334C470.322 93.4808 468.702 92.5568 467.003 91.5582C466.42 91.22 465.827 90.9013 465.23 90.5883C465.125 90.5332 465.021 90.4781 464.913 90.4214C464.334 90.1194 463.751 89.8276 463.165 89.5411C461.83 88.8877 460.533 88.1693 459.236 87.4439C458.236 86.8852 457.237 86.3312 456.206 85.8302C453.985 84.7488 451.826 83.5398 449.686 82.3067C448.39 81.5604 447.073 80.8784 445.727 80.2269C444.075 79.422 442.462 78.5626 440.859 77.6649C439.666 77 438.456 76.3681 437.246 75.7347C436.026 75.0963 434.812 74.4485 433.6 73.7973C433.434 73.7081 433.268 73.619 433.097 73.5271C432.388 73.1456 431.679 72.7623 430.976 72.3691C430.432 72.0659 429.878 71.7885 429.317 71.5179C427.987 70.8673 426.698 70.1444 425.405 69.4265C424.263 68.7932 423.119 68.174 421.943 67.6063C421.042 67.1654 420.174 66.6678 419.303 66.171C418.124 65.4988 416.939 64.8612 415.719 64.2656C414.214 63.529 412.72 62.7536 411.279 61.8973C410.624 61.5085 409.955 61.1591 409.271 60.8241C408.137 60.2686 407.03 59.6692 405.923 59.0615C404.883 58.4916 403.833 57.9399 402.779 57.3956C401.648 56.8115 400.532 56.2118 399.434 55.5674C398.986 55.3142 398.532 55.0834 398.07 54.8559C397.535 54.5902 397.007 54.3117 396.478 54.0336C396.296 53.9381 396.296 53.9381 396.11 53.8406C394.834 53.1685 393.564 52.4841 392.295 51.7977C391.331 51.2775 390.361 50.7734 389.377 50.2917C389.377 50.1914 389.377 50.0911 389.377 49.9878C389.253 49.9772 389.13 49.9667 389.002 49.9558C388.303 49.8002 387.766 49.4893 387.15 49.1331C387.029 49.0646 386.908 48.9961 386.783 48.9255C386.096 48.5354 385.413 48.137 384.732 47.737C384.108 47.371 383.478 47.0371 382.828 46.7196C381.083 45.8527 379.369 44.925 377.671 43.9703C376.792 43.4775 375.896 43.0289 374.989 42.5901C373.579 41.9026 372.215 41.1489 370.852 40.3715C370.063 39.9225 369.273 39.491 368.455 39.0945C367.646 38.7003 366.863 38.2728 366.085 37.8219C365.979 37.7612 365.872 37.7004 365.763 37.6378C365.256 37.3398 364.809 37.0391 364.378 36.6377C363.593 35.9433 362.628 35.5233 361.697 35.0582C361.499 34.958 361.301 34.8577 361.103 34.7571C360.807 34.6065 360.51 34.4559 360.213 34.3059C359.262 33.8253 358.319 33.3281 357.379 32.8257C356.906 32.5748 356.439 32.3431 355.946 32.1325C355.348 31.8766 354.786 31.5784 354.216 31.2689C353.187 30.7163 352.144 30.205 351.08 29.7249C350.67 29.538 350.286 29.3591 349.926 29.0881C349.505 28.7746 349.047 28.6082 348.562 28.4102C347.037 27.7341 345.558 26.9811 344.081 26.206C343.092 25.6866 342.097 25.1783 341.093 24.6871C340.705 24.4961 340.327 24.3011 339.958 24.0753C339.582 23.855 339.199 23.6908 338.798 23.5216C338.349 23.3252 337.917 23.0997 337.483 22.8739C337.389 22.8254 337.295 22.7769 337.199 22.727C336.903 22.5735 336.607 22.4195 336.311 22.2655C335.921 22.063 335.531 21.8606 335.141 21.6583C335.048 21.61 334.955 21.5617 334.859 21.5119C333.874 21.0019 332.886 20.5098 331.876 20.0527C330.249 19.3052 328.669 18.4607 327.088 17.6214C326.939 17.5433 326.79 17.4652 326.636 17.3848C324.849 16.4355 323.335 15.1135 322.519 13.2147C322.519 13.0643 322.519 12.9138 322.519 12.7588C322.418 12.7588 322.318 12.7588 322.214 12.7588C321.605 10.9135 321.374 8.72242 322.176 6.90027C322.27 6.71633 322.27 6.71633 322.367 6.52869C322.431 6.3998 322.496 6.27091 322.562 6.13812C323.726 4.02387 325.762 2.63239 328.04 1.89644C329.283 1.53902 330.524 1.34384 331.818 1.34157C331.973 1.34099 331.973 1.34099 332.131 1.3404C332.477 1.33929 332.823 1.33925 333.168 1.3392C333.419 1.33861 333.67 1.33796 333.921 1.33725C334.612 1.33548 335.303 1.33465 335.994 1.33396C336.742 1.33305 337.49 1.33128 338.238 1.3296C339.541 1.3268 340.845 1.32454 342.149 1.32264C344.059 1.31984 345.97 1.31615 347.881 1.31224C351.04 1.30579 354.199 1.29995 357.358 1.29447C364.552 1.28197 371.745 1.26733 378.938 1.25242C380.093 1.25003 381.248 1.24766 382.403 1.24531C391.023 1.22775 399.642 1.20944 408.262 1.16693C408.445 1.16603 408.627 1.16514 408.816 1.16421C410.567 1.15558 412.318 1.14665 414.069 1.13753C429.508 1.05718 444.946 1.03352 460.385 1.02442Z" fill="black"/>
<path d="M235.381 0.0382966C236.339 0.0259248 237.297 0.0159781 238.256 0.010421C238.536 0.00849942 238.816 0.00581275 239.096 0.002265C241.08 -0.0217725 242.825 0.132688 244.611 1.08816C244.714 1.14202 244.817 1.19589 244.924 1.25139C247.014 2.35855 248.685 3.69403 249.427 6.04478C249.967 8.36248 249.561 10.9369 248.344 12.9786C246.837 15.1671 244.754 16.1326 242.469 17.3192C241.602 17.771 240.745 18.2395 239.89 18.7139C238.542 19.46 237.182 20.1778 235.816 20.8886C234.633 21.5054 233.463 22.1422 232.297 22.7884C231.162 23.4152 230.016 24.0184 228.867 24.6182C227.873 25.1383 226.888 25.6723 225.906 26.2158C224.56 26.9611 223.201 27.6785 221.836 28.3885C220.614 29.026 219.405 29.6854 218.199 30.3535C217.365 30.8143 216.524 31.2525 215.67 31.673C215.171 31.9297 214.687 32.2096 214.203 32.4929C213.511 32.898 212.813 33.2761 212.094 33.6316C209.649 34.7794 209.649 34.7794 207.516 36.397C206.537 37.3556 205.314 37.9158 204.118 38.5523C203.41 38.9342 202.713 39.336 202.015 39.7365C200.731 40.4709 199.441 41.1968 198.149 41.9181C196.294 42.9541 194.447 44.0027 192.602 45.0567C190.728 46.1269 188.852 47.1912 186.968 48.2431C185.146 49.2612 183.332 50.2912 181.538 51.3589C180.976 51.683 180.407 51.9944 179.839 52.3059C179.043 52.7429 178.251 53.1868 177.46 53.6303C177.372 53.6796 177.284 53.7288 177.193 53.7795C173.536 55.8269 173.536 55.8269 169.898 57.9076C168.688 58.6072 167.471 59.2932 166.25 59.9744C164.921 60.7165 163.593 61.4611 162.27 62.2135C162.132 62.2919 161.994 62.3702 161.852 62.4509C161.205 62.8191 160.564 63.1934 159.929 63.5813C159.274 63.9795 158.608 64.3522 157.935 64.7185C157.119 65.1629 156.308 65.6167 155.497 66.0697C155.408 66.1197 155.318 66.1696 155.226 66.221C154.021 66.8939 152.828 67.582 151.645 68.2936C150.926 68.7233 150.194 69.1105 149.437 69.4691C148.901 69.7469 148.392 70.0594 147.877 70.3738C147.167 70.8013 146.444 71.2048 145.722 71.6101C145.56 71.7012 145.398 71.7924 145.231 71.8863C144.336 72.3898 143.44 72.8912 142.543 73.3911C142.358 73.4942 142.173 73.5974 141.989 73.7006C141.636 73.8972 141.283 74.0934 140.93 74.2893C140.141 74.7293 139.365 75.179 138.604 75.6674C138.219 75.9056 137.817 76.1024 137.41 76.2988C136.772 76.6143 136.194 76.9575 135.605 77.3609C135.361 77.4993 135.114 77.6352 134.867 77.7694C131.431 79.6422 131.431 79.6422 128.068 81.6435C127.5 81.9835 126.924 82.3014 126.344 82.618C125.496 83.0812 124.652 83.5514 123.807 84.0208C123.712 84.0734 123.617 84.1261 123.52 84.1803C121.037 85.5603 118.559 86.9487 116.099 88.3698C114.045 89.5551 111.98 90.7205 109.909 91.8767C108.328 92.7594 108.328 92.7594 106.756 93.6565C106.596 93.7479 106.437 93.8393 106.272 93.9334C105.958 94.1181 105.647 94.3086 105.339 94.504C103.118 95.8763 100.524 96.8217 97.9117 96.9578C97.7217 96.97 97.5316 96.9822 97.3358 96.9948C94.3602 97.0986 91.8475 95.6227 89.7108 93.6165C88.8988 92.7335 88.2734 91.6871 87.6237 90.6815C87.3623 90.2788 87.0963 89.8792 86.8302 89.4797C86.2385 88.5909 85.6564 87.6969 85.0899 86.7915C84.9221 86.5238 84.7526 86.2571 84.5817 85.9913C83.8646 84.8737 83.1988 83.731 82.5607 82.5663C82.5004 82.4572 82.4401 82.348 82.378 82.2356C81.4164 80.4831 80.574 78.6868 79.7774 76.8538C79.7112 76.7019 79.7112 76.7019 79.6436 76.5471C78.993 75.0506 78.4082 73.5356 77.849 72.0024C77.7676 71.784 77.6861 71.5656 77.6045 71.3473C77.3715 70.7197 77.1651 70.0864 76.9614 69.4487C76.8197 69.0401 76.6648 68.6474 76.4995 68.2484C76.1135 67.2855 75.8437 66.2945 75.5691 65.2947C75.468 64.93 75.3667 64.5654 75.2652 64.2008C75.2154 64.0221 75.1656 63.8433 75.1144 63.659C74.9626 63.1274 74.8019 62.5992 74.6382 62.0712C74.412 61.3376 74.2167 60.6089 74.0492 59.8596C73.9983 59.6349 73.9473 59.4102 73.8961 59.1856C73.8709 59.0751 73.8458 58.9646 73.8199 58.8508C73.7071 58.3655 73.5833 57.8832 73.4603 57.4004C73.052 55.7744 72.695 54.1364 72.3436 52.497C72.2673 52.1416 72.1903 51.7864 72.1125 51.4313C71.0365 46.4957 70.3743 41.462 69.8885 36.4352C69.8764 36.3111 69.8643 36.1869 69.8519 36.0589C69.5275 32.6754 69.4555 29.295 69.4171 25.8975C69.3946 23.9887 69.3473 22.0881 69.1992 20.1845C69.1876 20.0334 69.176 19.8824 69.1641 19.7268C69.0859 18.8051 68.952 17.9034 68.7948 16.9922C68.661 16.1464 68.6735 15.3006 68.6726 14.4462C68.6689 14.2667 68.6651 14.0872 68.6613 13.9022C68.6554 12.1103 69.1256 10.5399 69.974 8.97283C70.0336 8.86229 70.0933 8.75174 70.1547 8.63785C71.798 5.68937 74.8657 3.83531 78.0253 2.9122C78.7601 2.72285 79.4395 2.62491 80.1992 2.60329C80.3991 2.59744 80.5989 2.5916 80.8047 2.58557C81.0265 2.57987 81.2482 2.57422 81.4699 2.56863C81.5851 2.56552 81.7003 2.56242 81.819 2.55922C84.9803 2.47405 88.1425 2.4341 91.3046 2.39154C92.1616 2.37989 93.0186 2.36772 93.8757 2.35559C96.4111 2.3198 98.9466 2.28487 101.482 2.24997C103.461 2.22272 105.44 2.19525 107.418 2.16721C108.266 2.15522 109.113 2.14341 109.96 2.13203C112.994 2.09126 116.027 2.04867 119.059 1.93902C121.875 1.84145 124.692 1.81718 127.509 1.77914C128.361 1.76751 129.214 1.75532 130.067 1.74319C132.047 1.71511 134.028 1.68766 136.008 1.66029C138.521 1.62552 141.034 1.59044 143.548 1.55481C144.39 1.54288 145.232 1.53109 146.074 1.51963C149.298 1.47577 152.521 1.42637 155.744 1.34651C159.131 1.26257 162.52 1.2128 165.908 1.16673C166.762 1.15503 167.617 1.14289 168.471 1.13079C170.993 1.09511 173.516 1.06 176.039 1.02516C178.011 0.997916 179.984 0.970467 181.957 0.942407C182.801 0.930424 183.645 0.91861 184.489 0.90723C187.558 0.86579 190.625 0.822828 193.693 0.709694C195.159 0.65586 196.623 0.62916 198.09 0.6177C198.521 0.614321 198.952 0.610206 199.384 0.60596C200.302 0.597039 201.221 0.588976 202.139 0.581011C205.675 0.550099 209.211 0.514901 212.746 0.42339C216.602 0.323948 220.459 0.265592 224.315 0.203956C225.05 0.192175 225.784 0.179977 226.519 0.167572C229.117 0.123779 231.715 0.0837348 234.313 0.0518344C234.669 0.0474466 235.025 0.0429375 235.381 0.0382966Z" fill="black"/>
<path d="M4.48001 276.64V324H5.24521e-06V276.64H4.48001ZM16.865 282.464C15.969 282.464 15.201 282.144 14.561 281.504C13.921 280.864 13.601 280.075 13.601 279.136C13.601 278.197 13.921 277.429 14.561 276.832C15.201 276.192 15.969 275.872 16.865 275.872C17.761 275.872 18.529 276.192 19.169 276.832C19.809 277.429 20.129 278.197 20.129 279.136C20.129 280.075 19.809 280.864 19.169 281.504C18.529 282.144 17.761 282.464 16.865 282.464ZM19.105 289.056V324H14.625V289.056H19.105ZM70.85 288.416C74.946 288.416 78.274 289.717 80.834 292.32C83.4367 294.88 84.738 298.613 84.738 303.52V324H80.322V304.032C80.322 300.235 79.4047 297.333 77.57 295.328C75.7353 293.323 73.2393 292.32 70.082 292.32C66.7967 292.32 64.1727 293.408 62.21 295.584C60.2473 297.76 59.266 300.917 59.266 305.056V324H54.85V304.032C54.85 300.235 53.9327 297.333 52.098 295.328C50.2633 293.323 47.746 292.32 44.546 292.32C41.2607 292.32 38.6367 293.408 36.674 295.584C34.7113 297.76 33.73 300.917 33.73 305.056V324H29.25V289.056H33.73V295.072C34.8393 292.896 36.418 291.253 38.466 290.144C40.514 288.992 42.7967 288.416 45.314 288.416C48.3433 288.416 50.9887 289.141 53.25 290.592C55.554 292.043 57.218 294.176 58.242 296.992C59.1807 294.219 60.7807 292.107 63.042 290.656C65.346 289.163 67.9487 288.416 70.85 288.416ZM126.304 304.736C126.304 306.272 126.261 307.445 126.176 308.256H97.1835C97.3115 310.901 97.9515 313.163 99.1035 315.04C100.256 316.917 101.77 318.347 103.648 319.328C105.525 320.267 107.573 320.736 109.792 320.736C112.693 320.736 115.125 320.032 117.088 318.624C119.093 317.216 120.416 315.317 121.056 312.928H125.792C124.938 316.341 123.104 319.136 120.288 321.312C117.514 323.445 114.016 324.512 109.792 324.512C106.506 324.512 103.562 323.787 100.96 322.336C98.3568 320.843 96.3088 318.752 94.8155 316.064C93.3648 313.333 92.6395 310.155 92.6395 306.528C92.6395 302.901 93.3648 299.723 94.8155 296.992C96.2662 294.261 98.2928 292.171 100.896 290.72C103.498 289.269 106.464 288.544 109.792 288.544C113.12 288.544 116.021 289.269 118.496 290.72C121.013 292.171 122.933 294.133 124.256 296.608C125.621 299.04 126.304 301.749 126.304 304.736ZM121.76 304.608C121.802 302.005 121.269 299.787 120.16 297.952C119.093 296.117 117.621 294.731 115.744 293.792C113.866 292.853 111.818 292.384 109.6 292.384C106.272 292.384 103.434 293.451 101.088 295.584C98.7408 297.717 97.4395 300.725 97.1835 304.608H121.76ZM166.719 288.544C170.004 288.544 172.863 289.312 175.295 290.848C177.727 292.384 179.476 294.325 180.543 296.672V289.056H185.023V324.896C185.023 328.096 184.319 330.933 182.911 333.408C181.545 335.883 179.625 337.781 177.151 339.104C174.676 340.469 171.86 341.152 168.703 341.152C164.223 341.152 160.489 340.085 157.503 337.952C154.559 335.819 152.724 332.917 151.999 329.248H156.415C157.183 331.68 158.633 333.621 160.767 335.072C162.943 336.523 165.588 337.248 168.703 337.248C170.964 337.248 172.991 336.757 174.783 335.776C176.575 334.837 177.983 333.429 179.007 331.552C180.031 329.675 180.543 327.456 180.543 324.896V316.256C179.433 318.645 177.663 320.629 175.231 322.208C172.841 323.744 170.004 324.512 166.719 324.512C163.519 324.512 160.639 323.765 158.079 322.272C155.561 320.779 153.577 318.667 152.127 315.936C150.719 313.205 150.015 310.048 150.015 306.464C150.015 302.88 150.719 299.744 152.127 297.056C153.577 294.325 155.561 292.235 158.079 290.784C160.639 289.291 163.519 288.544 166.719 288.544ZM180.543 306.528C180.543 303.712 179.967 301.237 178.815 299.104C177.663 296.971 176.084 295.328 174.079 294.176C172.116 293.024 169.94 292.448 167.551 292.448C165.076 292.448 162.857 293.003 160.895 294.112C158.932 295.221 157.375 296.843 156.223 298.976C155.113 301.067 154.559 303.563 154.559 306.464C154.559 309.323 155.113 311.84 156.223 314.016C157.375 316.149 158.932 317.792 160.895 318.944C162.857 320.053 165.076 320.608 167.551 320.608C169.94 320.608 172.116 320.032 174.079 318.88C176.084 317.728 177.663 316.085 178.815 313.952C179.967 311.819 180.543 309.344 180.543 306.528ZM199.73 295.264C200.711 293.088 202.205 291.403 204.21 290.208C206.258 289.013 208.754 288.416 211.698 288.416V293.088H210.482C207.239 293.088 204.637 293.963 202.674 295.712C200.711 297.461 199.73 300.384 199.73 304.48V324H195.25V289.056H199.73V295.264ZM250.054 304.736C250.054 306.272 250.011 307.445 249.926 308.256H220.934C221.062 310.901 221.702 313.163 222.854 315.04C224.006 316.917 225.52 318.347 227.398 319.328C229.275 320.267 231.323 320.736 233.542 320.736C236.443 320.736 238.875 320.032 240.838 318.624C242.843 317.216 244.166 315.317 244.806 312.928H249.542C248.688 316.341 246.854 319.136 244.038 321.312C241.264 323.445 237.766 324.512 233.542 324.512C230.256 324.512 227.312 323.787 224.71 322.336C222.107 320.843 220.059 318.752 218.566 316.064C217.115 313.333 216.39 310.155 216.39 306.528C216.39 302.901 217.115 299.723 218.566 296.992C220.016 294.261 222.043 292.171 224.646 290.72C227.248 289.269 230.214 288.544 233.542 288.544C236.87 288.544 239.771 289.269 242.246 290.72C244.763 292.171 246.683 294.133 248.006 296.608C249.371 299.04 250.054 301.749 250.054 304.736ZM245.51 304.608C245.552 302.005 245.019 299.787 243.91 297.952C242.843 296.117 241.371 294.731 239.494 293.792C237.616 292.853 235.568 292.384 233.35 292.384C230.022 292.384 227.184 293.451 224.838 295.584C222.491 297.717 221.19 300.725 220.934 304.608H245.51ZM289.866 304.736C289.866 306.272 289.823 307.445 289.738 308.256H260.746C260.874 310.901 261.514 313.163 262.666 315.04C263.818 316.917 265.333 318.347 267.21 319.328C269.087 320.267 271.135 320.736 273.354 320.736C276.255 320.736 278.687 320.032 280.65 318.624C282.655 317.216 283.978 315.317 284.618 312.928H289.354C288.501 316.341 286.666 319.136 283.85 321.312C281.077 323.445 277.578 324.512 273.354 324.512C270.069 324.512 267.125 323.787 264.522 322.336C261.919 320.843 259.871 318.752 258.378 316.064C256.927 313.333 256.202 310.155 256.202 306.528C256.202 302.901 256.927 299.723 258.378 296.992C259.829 294.261 261.855 292.171 264.458 290.72C267.061 289.269 270.026 288.544 273.354 288.544C276.682 288.544 279.583 289.269 282.058 290.72C284.575 292.171 286.495 294.133 287.818 296.608C289.183 299.04 289.866 301.749 289.866 304.736ZM285.322 304.608C285.365 302.005 284.831 299.787 283.722 297.952C282.655 296.117 281.183 294.731 279.306 293.792C277.429 292.853 275.381 292.384 273.162 292.384C269.834 292.384 266.997 293.451 264.65 295.584C262.303 297.717 261.002 300.725 260.746 304.608H285.322ZM314.447 288.416C318.628 288.416 322.041 289.717 324.687 292.32C327.332 294.88 328.655 298.613 328.655 303.52V324H324.239V304.032C324.239 300.235 323.279 297.333 321.359 295.328C319.481 293.323 316.9 292.32 313.615 292.32C310.244 292.32 307.556 293.387 305.551 295.52C303.545 297.653 302.543 300.789 302.543 304.928V324H298.063V289.056H302.543V295.008C303.652 292.875 305.252 291.253 307.343 290.144C309.433 288.992 311.801 288.416 314.447 288.416ZM368.157 324.512C364.146 324.512 360.861 323.595 358.301 321.76C355.784 319.883 354.376 317.344 354.077 314.144H358.685C358.898 316.107 359.816 317.707 361.437 318.944C363.101 320.139 365.32 320.736 368.093 320.736C370.525 320.736 372.424 320.16 373.789 319.008C375.197 317.856 375.901 316.427 375.901 314.72C375.901 313.525 375.517 312.544 374.749 311.776C373.981 311.008 373 310.411 371.805 309.984C370.653 309.515 369.074 309.024 367.069 308.512C364.466 307.829 362.354 307.147 360.733 306.464C359.112 305.781 357.725 304.779 356.573 303.456C355.464 302.091 354.909 300.277 354.909 298.016C354.909 296.309 355.421 294.731 356.445 293.28C357.469 291.829 358.92 290.677 360.797 289.824C362.674 288.971 364.808 288.544 367.197 288.544C370.952 288.544 373.981 289.504 376.285 291.424C378.589 293.301 379.826 295.904 379.997 299.232H375.517C375.389 297.184 374.578 295.541 373.085 294.304C371.634 293.024 369.629 292.384 367.069 292.384C364.808 292.384 362.973 292.917 361.565 293.984C360.157 295.051 359.453 296.373 359.453 297.952C359.453 299.317 359.858 300.448 360.669 301.344C361.522 302.197 362.568 302.88 363.805 303.392C365.042 303.861 366.706 304.395 368.797 304.992C371.314 305.675 373.32 306.336 374.813 306.976C376.306 307.616 377.586 308.555 378.653 309.792C379.72 311.029 380.274 312.672 380.317 314.72C380.317 316.597 379.805 318.283 378.781 319.776C377.757 321.227 376.328 322.379 374.493 323.232C372.658 324.085 370.546 324.512 368.157 324.512ZM394.574 292.832V314.528C394.574 316.661 394.979 318.133 395.79 318.944C396.601 319.755 398.03 320.16 400.078 320.16H404.174V324H399.374C396.217 324 393.87 323.275 392.334 321.824C390.798 320.331 390.03 317.899 390.03 314.528V292.832H385.166V289.056H390.03V280.288H394.574V289.056H404.174V292.832H394.574ZM441.835 289.056V324H437.355V317.856C436.331 320.032 434.752 321.696 432.619 322.848C430.485 324 428.096 324.576 425.451 324.576C421.269 324.576 417.856 323.296 415.211 320.736C412.565 318.133 411.243 314.379 411.243 309.472V289.056H415.659V308.96C415.659 312.757 416.597 315.659 418.475 317.664C420.395 319.669 422.997 320.672 426.283 320.672C429.653 320.672 432.341 319.605 434.347 317.472C436.352 315.339 437.355 312.203 437.355 308.064V289.056H441.835ZM450.015 306.464C450.015 302.88 450.74 299.744 452.191 297.056C453.641 294.325 455.625 292.235 458.143 290.784C460.703 289.291 463.583 288.544 466.783 288.544C469.855 288.544 472.628 289.291 475.103 290.784C477.577 292.277 479.391 294.219 480.543 296.608V276.64H485.023V324H480.543V316.192C479.476 318.624 477.727 320.629 475.295 322.208C472.863 323.744 470.004 324.512 466.719 324.512C463.519 324.512 460.639 323.765 458.079 322.272C455.561 320.779 453.577 318.667 452.127 315.936C450.719 313.205 450.015 310.048 450.015 306.464ZM480.543 306.528C480.543 303.712 479.967 301.237 478.815 299.104C477.663 296.971 476.084 295.328 474.079 294.176C472.116 293.024 469.94 292.448 467.551 292.448C465.076 292.448 462.857 293.003 460.895 294.112C458.932 295.221 457.375 296.843 456.223 298.976C455.113 301.067 454.559 303.563 454.559 306.464C454.559 309.323 455.113 311.84 456.223 314.016C457.375 316.149 458.932 317.792 460.895 318.944C462.857 320.053 465.076 320.608 467.551 320.608C469.94 320.608 472.116 320.032 474.079 318.88C476.084 317.728 477.663 316.085 478.815 313.952C479.967 311.819 480.543 309.344 480.543 306.528ZM497.49 282.464C496.594 282.464 495.826 282.144 495.186 281.504C494.546 280.864 494.226 280.075 494.226 279.136C494.226 278.197 494.546 277.429 495.186 276.832C495.826 276.192 496.594 275.872 497.49 275.872C498.386 275.872 499.154 276.192 499.794 276.832C500.434 277.429 500.754 278.197 500.754 279.136C500.754 280.075 500.434 280.864 499.794 281.504C499.154 282.144 498.386 282.464 497.49 282.464ZM499.73 289.056V324H495.25V289.056H499.73ZM525.171 324.512C521.886 324.512 518.92 323.787 516.275 322.336C513.672 320.843 511.603 318.752 510.067 316.064C508.574 313.333 507.827 310.155 507.827 306.528C507.827 302.901 508.595 299.744 510.131 297.056C511.667 294.325 513.758 292.235 516.403 290.784C519.048 289.291 522.014 288.544 525.299 288.544C528.584 288.544 531.55 289.291 534.195 290.784C536.883 292.235 538.974 294.325 540.467 297.056C542.003 299.744 542.771 302.901 542.771 306.528C542.771 310.112 542.003 313.269 540.467 316C538.931 318.731 536.819 320.843 534.131 322.336C531.443 323.787 528.456 324.512 525.171 324.512ZM525.171 320.608C527.475 320.608 529.608 320.096 531.571 319.072C533.534 318.005 535.112 316.427 536.307 314.336C537.544 312.203 538.163 309.6 538.163 306.528C538.163 303.456 537.566 300.875 536.371 298.784C535.176 296.651 533.598 295.072 531.635 294.048C529.672 292.981 527.539 292.448 525.235 292.448C522.931 292.448 520.798 292.981 518.835 294.048C516.872 295.072 515.294 296.651 514.099 298.784C512.947 300.875 512.371 303.456 512.371 306.528C512.371 309.6 512.947 312.203 514.099 314.336C515.294 316.427 516.851 318.005 518.771 319.072C520.734 320.096 522.867 320.608 525.171 320.608ZM562.97 324.512C558.959 324.512 555.674 323.595 553.114 321.76C550.596 319.883 549.188 317.344 548.89 314.144H553.498C553.711 316.107 554.628 317.707 556.25 318.944C557.914 320.139 560.132 320.736 562.906 320.736C565.338 320.736 567.236 320.16 568.602 319.008C570.01 317.856 570.714 316.427 570.714 314.72C570.714 313.525 570.33 312.544 569.562 311.776C568.794 311.008 567.812 310.411 566.618 309.984C565.466 309.515 563.887 309.024 561.882 308.512C559.279 307.829 557.167 307.147 555.546 306.464C553.924 305.781 552.538 304.779 551.386 303.456C550.276 302.091 549.722 300.277 549.722 298.016C549.722 296.309 550.234 294.731 551.258 293.28C552.282 291.829 553.732 290.677 555.61 289.824C557.487 288.971 559.62 288.544 562.01 288.544C565.764 288.544 568.794 289.504 571.098 291.424C573.402 293.301 574.639 295.904 574.81 299.232H570.33C570.202 297.184 569.391 295.541 567.898 294.304C566.447 293.024 564.442 292.384 561.882 292.384C559.62 292.384 557.786 292.917 556.378 293.984C554.97 295.051 554.266 296.373 554.266 297.952C554.266 299.317 554.671 300.448 555.482 301.344C556.335 302.197 557.38 302.88 558.618 303.392C559.855 303.861 561.519 304.395 563.61 304.992C566.127 305.675 568.132 306.336 569.626 306.976C571.119 307.616 572.399 308.555 573.466 309.792C574.532 311.029 575.087 312.672 575.13 314.72C575.13 316.597 574.618 318.283 573.594 319.776C572.57 321.227 571.14 322.379 569.306 323.232C567.471 324.085 565.359 324.512 562.97 324.512Z" fill="black"/>
</svg>
